<svg width="67" height="67" viewBox="0 0 67 67" fill="none" xmlns="http://www.w3.org/2000/svg">
<mask id="path-1-inside-1_20_126" fill="white">
<path d="M22.7715 62.9763C22.3688 64.0828 21.142 64.6595 20.0634 64.1873C13.5538 61.3372 8.10021 56.4809 4.51779 50.3012C0.577978 43.505 -0.848177 35.5404 0.488585 27.7994C1.82535 20.0584 5.84001 13.0333 11.8309 7.95201C17.8218 2.8707 25.4078 0.0563524 33.2632 0.000835135C41.1186 -0.0546821 48.7437 2.65216 54.8058 7.64829C60.8679 12.6444 64.9815 19.612 66.4275 27.3334C67.8736 35.0547 66.5601 43.0387 62.7168 49.8899C59.2221 56.1196 53.8377 61.0525 47.369 63.9943C46.2972 64.4817 45.0624 63.9224 44.6441 62.8217C44.2257 61.7211 44.7831 60.4968 45.8503 59.9995C51.3859 57.4197 55.9926 53.1613 58.9981 47.8038C62.3522 41.8246 63.4985 34.8568 62.2365 28.1183C60.9745 21.3797 57.3845 15.2989 52.094 10.9387C46.8035 6.5785 40.1489 4.21618 33.2934 4.26463C26.4378 4.31308 19.8173 6.76922 14.589 11.2038C9.36059 15.6383 5.85693 21.7692 4.69031 28.525C3.52368 35.2807 4.76831 42.2316 8.20666 48.1628C11.2875 53.4772 15.954 57.6701 21.5255 60.1714C22.5996 60.6536 23.1742 61.8699 22.7715 62.9763Z"/>
</mask>
<path d="M22.7715 62.9763C22.3688 64.0828 21.142 64.6595 20.0634 64.1873C13.5538 61.3372 8.10021 56.4809 4.51779 50.3012C0.577978 43.505 -0.848177 35.5404 0.488585 27.7994C1.82535 20.0584 5.84001 13.0333 11.8309 7.95201C17.8218 2.8707 25.4078 0.0563524 33.2632 0.000835135C41.1186 -0.0546821 48.7437 2.65216 54.8058 7.64829C60.8679 12.6444 64.9815 19.612 66.4275 27.3334C67.8736 35.0547 66.5601 43.0387 62.7168 49.8899C59.2221 56.1196 53.8377 61.0525 47.369 63.9943C46.2972 64.4817 45.0624 63.9224 44.6441 62.8217C44.2257 61.7211 44.7831 60.4968 45.8503 59.9995C51.3859 57.4197 55.9926 53.1613 58.9981 47.8038C62.3522 41.8246 63.4985 34.8568 62.2365 28.1183C60.9745 21.3797 57.3845 15.2989 52.094 10.9387C46.8035 6.5785 40.1489 4.21618 33.2934 4.26463C26.4378 4.31308 19.8173 6.76922 14.589 11.2038C9.36059 15.6383 5.85693 21.7692 4.69031 28.525C3.52368 35.2807 4.76831 42.2316 8.20666 48.1628C11.2875 53.4772 15.954 57.6701 21.5255 60.1714C22.5996 60.6536 23.1742 61.8699 22.7715 62.9763Z" stroke="#E4E4E4" stroke-width="10" stroke-linejoin="round" mask="url(#path-1-inside-1_20_126)"/>
<mask id="path-2-inside-2_20_126" fill="white">
<path d="M22.7715 62.9763C22.3688 64.0828 21.142 64.6596 20.0635 64.1873C16.6943 62.7121 13.5865 60.6901 10.8677 58.1988C8.14892 55.7075 5.86376 52.7877 4.10055 49.56C3.53608 48.5267 4.00376 47.2543 5.07089 46.7567C6.13802 46.2591 7.39969 46.7253 7.97373 47.7534C9.49404 50.4761 11.4425 52.9422 13.7484 55.0551C16.0543 57.1681 18.6808 58.8942 21.5256 60.1714C22.5998 60.6537 23.1742 61.8699 22.7715 62.9763Z"/>
</mask>
<path d="M22.7715 62.9763C22.3688 64.0828 21.142 64.6596 20.0635 64.1873C16.6943 62.7121 13.5865 60.6901 10.8677 58.1988C8.14892 55.7075 5.86376 52.7877 4.10055 49.56C3.53608 48.5267 4.00376 47.2543 5.07089 46.7567C6.13802 46.2591 7.39969 46.7253 7.97373 47.7534C9.49404 50.4761 11.4425 52.9422 13.7484 55.0551C16.0543 57.1681 18.6808 58.8942 21.5256 60.1714C22.5998 60.6537 23.1742 61.8699 22.7715 62.9763Z" stroke="#2AA837" stroke-width="10" stroke-linejoin="round" mask="url(#path-2-inside-2_20_126)"/>
</svg>
