<svg width="32" height="32" viewBox="0 0 32 32" fill="none" xmlns="http://www.w3.org/2000/svg">
<g clip-path="url(#clip0_6_333)">
<path d="M6.66667 22.5733C5.19118 21.7203 3.94159 20.5261 3.02255 19.0908C2.10352 17.6555 1.54179 16.0208 1.38443 14.3238C1.22707 12.6267 1.47865 10.9167 2.11811 9.33685C2.75756 7.75703 3.76627 6.35343 5.05975 5.24363C6.35322 4.13382 7.8938 3.35012 9.55245 2.95816C11.2111 2.56621 12.9395 2.57741 14.5929 2.99083C16.2464 3.40425 17.7767 4.20785 19.0557 5.33432C20.3346 6.4608 21.3251 7.87735 21.944 9.46533C23.8044 9.09757 25.735 9.46482 27.3304 10.49C28.9258 11.5152 30.0621 13.1185 30.5006 14.9635C30.9392 16.8086 30.646 18.7517 29.6825 20.3852C28.719 22.0186 27.1602 23.2153 25.3333 23.724V20.884C25.9496 20.5916 26.4942 20.1676 26.9289 19.642C27.3636 19.1164 27.6778 18.5018 27.8494 17.8417C28.021 17.1815 28.0457 16.4918 27.9219 15.821C27.7982 15.1502 27.5288 14.5147 27.1329 13.9593C26.737 13.4038 26.2242 12.9419 25.6305 12.6061C25.0368 12.2703 24.3767 12.0686 23.6967 12.0154C23.0167 11.9622 22.3333 12.0588 21.6946 12.2982C21.0559 12.5377 20.4775 12.9142 20 13.4013V13.3333C20 11.9989 19.6662 10.6856 19.029 9.51311C18.3918 8.34061 17.4714 7.34614 16.3517 6.62025C15.2319 5.89436 13.9484 5.46011 12.6179 5.35704C11.2874 5.25398 9.95229 5.48537 8.73409 6.03014C7.5159 6.57492 6.45333 7.41577 5.64315 8.47614C4.83297 9.53651 4.30091 10.7827 4.09542 12.1012C3.88993 13.4198 4.01754 14.7688 4.46663 16.0254C4.91572 17.282 5.67202 18.4064 6.66667 19.296V22.5733ZM9.33333 18.6667H12V26.6667H9.33333V18.6667ZM20 18.6667H22.6667V26.6667H20V18.6667ZM14.6667 22.6667H17.3333V30.6667H14.6667V22.6667Z" fill="#FF7171"/>
</g>
<defs>
<clipPath id="clip0_6_333">
<rect width="32" height="32" fill="white"/>
</clipPath>
</defs>
</svg>
