<svg width="91" height="84" viewBox="31.781 15.302 27.866 30.604" fill="none" xmlns="http://www.w3.org/2000/svg">
<path d="M43.1042 38.6072L43.5756 35.4958H46.9874L46.3947 37.9653C46.3241 38.2593 46.547 38.542 46.8494 38.542C47.2219 38.542 47.4448 38.9564 47.2395 39.2672L43.4538 45L44.6506 40.5117C44.7846 40.0095 44.4061 39.5168 43.8863 39.5168C43.4022 39.5168 43.0317 39.0859 43.1042 38.6072Z" fill="url(#paint0_linear_36_391)"/>
<g filter="url(#filter0_bdi_36_391)">
<path fill-rule="evenodd" clip-rule="evenodd" d="M52.4596 35.4958H37.605V35.4945C37.5645 35.4953 37.5239 35.4958 37.4832 35.4958C34.4549 35.4958 32 33.0409 32 30.0126C32 27.9575 33.1306 26.1665 34.8037 25.2276C34.8029 25.1777 34.8025 25.1278 34.8025 25.0777C34.8025 20.0642 38.8667 16 43.8802 16C48.2048 16 51.8231 19.024 52.7358 23.0728C56.0448 23.2117 58.6849 25.9383 58.6849 29.2815C58.6849 32.632 56.0334 35.3631 52.7143 35.4911V35.4958H52.4816C52.4779 35.4958 52.4742 35.4958 52.4706 35.4958C52.4669 35.4958 52.4632 35.4958 52.4596 35.4958Z" fill="url(#paint1_radial_36_391)" fill-opacity="0.77"/>
</g>
<g style="mix-blend-mode:soft-light" filter="url(#filter1_di_36_391)">
<circle cx="37.4832" cy="30.0126" r="5.48319" fill="#848484"/>
</g>
<mask id="mask0_36_391" style="mask-type:alpha" maskUnits="userSpaceOnUse" x="32" y="16" width="27" height="20">
<path fill-rule="evenodd" clip-rule="evenodd" d="M52.4596 35.4958H37.605V35.4945C37.5645 35.4953 37.5239 35.4958 37.4832 35.4958C34.4549 35.4958 32 33.0409 32 30.0126C32 27.9575 33.1306 26.1665 34.8037 25.2276C34.8029 25.1777 34.8025 25.1278 34.8025 25.0777C34.8025 20.0642 38.8667 16 43.8802 16C48.2048 16 51.8231 19.024 52.7358 23.0728C56.0448 23.2117 58.6849 25.9383 58.6849 29.2815C58.6849 32.4662 56.2892 35.0914 53.2017 35.4532V35.4958H52.4816C52.4779 35.4958 52.4742 35.4958 52.4706 35.4958C52.4669 35.4958 52.4632 35.4958 52.4596 35.4958Z" fill="url(#paint2_radial_36_391)" fill-opacity="0.77"/>
</mask>
<g mask="url(#mask0_36_391)">
<g filter="url(#filter2_f_36_391)">
<path d="M45.0378 30.8655C41.8142 33.239 38.8862 34.8872 36.9958 35.4958H53.6891C51.6594 35.4958 47.3759 32.2729 45.0378 30.8655Z" fill="url(#paint3_radial_36_391)"/>
</g>
<g style="mix-blend-mode:screen" filter="url(#filter3_f_36_391)">
<path d="M45.769 28.7941C43.7322 29.9606 40.8709 35.4404 39.6765 35.7395H51.8614C50.579 35.7395 47.2463 29.4858 45.769 28.7941Z" fill="url(#paint4_linear_36_391)"/>
</g>
<g style="mix-blend-mode:screen" filter="url(#filter4_f_36_391)">
<path d="M45.2815 30.2563C43.9146 31.0364 41.9403 35.5395 41.1387 35.7395L49.3025 35.4958C48.4419 35.4958 46.273 30.7189 45.2815 30.2563Z" fill="url(#paint5_linear_36_391)"/>
</g>
</g>
<defs>
<filter id="filter0_bdi_36_391" x="0" y="0" width="90.6849" height="83.4958" filterUnits="userSpaceOnUse" color-interpolation-filters="sRGB">
<feFlood flood-opacity="0" result="BackgroundImageFix"/>
<feGaussianBlur in="BackgroundImageFix" stdDeviation="8"/>
<feComposite in2="SourceAlpha" operator="in" result="effect1_backgroundBlur_36_391"/>
<feColorMatrix in="SourceAlpha" type="matrix" values="0 0 0 0 0 0 0 0 0 0 0 0 0 0 0 0 0 0 127 0" result="hardAlpha"/>
<feOffset dy="16"/>
<feGaussianBlur stdDeviation="16"/>
<feColorMatrix type="matrix" values="0 0 0 0 0 0 0 0 0 0.2015 0 0 0 0 0.3875 0 0 0 0.2 0"/>
<feBlend mode="normal" in2="effect1_backgroundBlur_36_391" result="effect2_dropShadow_36_391"/>
<feBlend mode="normal" in="SourceGraphic" in2="effect2_dropShadow_36_391" result="shape"/>
<feColorMatrix in="SourceAlpha" type="matrix" values="0 0 0 0 0 0 0 0 0 0 0 0 0 0 0 0 0 0 127 0" result="hardAlpha"/>
<feOffset dx="1" dy="2"/>
<feGaussianBlur stdDeviation="7"/>
<feComposite in2="hardAlpha" operator="arithmetic" k2="-1" k3="1"/>
<feColorMatrix type="matrix" values="0 0 0 0 1 0 0 0 0 1 0 0 0 0 1 0 0 0 1 0"/>
<feBlend mode="normal" in2="shape" result="effect3_innerShadow_36_391"/>
</filter>
<filter id="filter1_di_36_391" x="24" y="8.5294" width="40.9664" height="38.9664" filterUnits="userSpaceOnUse" color-interpolation-filters="sRGB">
<feFlood flood-opacity="0" result="BackgroundImageFix"/>
<feColorMatrix in="SourceAlpha" type="matrix" values="0 0 0 0 0 0 0 0 0 0 0 0 0 0 0 0 0 0 127 0" result="hardAlpha"/>
<feOffset dx="-2" dy="-10"/>
<feGaussianBlur stdDeviation="3"/>
<feColorMatrix type="matrix" values="0 0 0 0 0 0 0 0 0 0 0 0 0 0 0 0 0 0 0.22 0"/>
<feBlend mode="normal" in2="BackgroundImageFix" result="effect1_dropShadow_36_391"/>
<feBlend mode="normal" in="SourceGraphic" in2="effect1_dropShadow_36_391" result="shape"/>
<feColorMatrix in="SourceAlpha" type="matrix" values="0 0 0 0 0 0 0 0 0 0 0 0 0 0 0 0 0 0 127 0" result="hardAlpha"/>
<feOffset dx="22" dy="12"/>
<feGaussianBlur stdDeviation="11"/>
<feComposite in2="hardAlpha" operator="arithmetic" k2="-1" k3="1"/>
<feColorMatrix type="matrix" values="0 0 0 0 1 0 0 0 0 1 0 0 0 0 1 0 0 0 0.74 0"/>
<feBlend mode="normal" in2="shape" result="effect2_innerShadow_36_391"/>
</filter>
<filter id="filter2_f_36_391" x="28.9958" y="22.8655" width="32.6933" height="20.6302" filterUnits="userSpaceOnUse" color-interpolation-filters="sRGB">
<feFlood flood-opacity="0" result="BackgroundImageFix"/>
<feBlend mode="normal" in="SourceGraphic" in2="BackgroundImageFix" result="shape"/>
<feGaussianBlur stdDeviation="4" result="effect1_foregroundBlur_36_391"/>
</filter>
<filter id="filter3_f_36_391" x="35.6765" y="24.7941" width="20.1849" height="14.9454" filterUnits="userSpaceOnUse" color-interpolation-filters="sRGB">
<feFlood flood-opacity="0" result="BackgroundImageFix"/>
<feBlend mode="normal" in="SourceGraphic" in2="BackgroundImageFix" result="shape"/>
<feGaussianBlur stdDeviation="2" result="effect1_foregroundBlur_36_391"/>
</filter>
<filter id="filter4_f_36_391" x="37.1387" y="26.2563" width="16.1639" height="13.4832" filterUnits="userSpaceOnUse" color-interpolation-filters="sRGB">
<feFlood flood-opacity="0" result="BackgroundImageFix"/>
<feBlend mode="normal" in="SourceGraphic" in2="BackgroundImageFix" result="shape"/>
<feGaussianBlur stdDeviation="2" result="effect1_foregroundBlur_36_391"/>
</filter>
<linearGradient id="paint0_linear_36_391" x1="45.6552" y1="35.4958" x2="45.6552" y2="41.8319" gradientUnits="userSpaceOnUse">
<stop stop-color="#E2BC38"/>
<stop offset="1" stop-color="#FFE244"/>
</linearGradient>
<radialGradient id="paint1_radial_36_391" cx="0" cy="0" r="1" gradientUnits="userSpaceOnUse" gradientTransform="translate(41.4024 20.1568) rotate(90.6693) scale(15.332 17.4959)">
<stop stop-color="white"/>
<stop offset="1" stop-color="#99CEFF"/>
</radialGradient>
<radialGradient id="paint2_radial_36_391" cx="0" cy="0" r="1" gradientUnits="userSpaceOnUse" gradientTransform="translate(41.4024 20.1568) rotate(90.6693) scale(15.332 17.4959)">
<stop stop-color="white"/>
<stop offset="1" stop-color="#99CEFF"/>
</radialGradient>
<radialGradient id="paint3_radial_36_391" cx="0" cy="0" r="1" gradientUnits="userSpaceOnUse" gradientTransform="translate(46.6083 34.9823) rotate(-90) scale(2.62454 13.5586)">
<stop stop-color="#FFDE41"/>
<stop offset="1" stop-color="#FFD200" stop-opacity="0"/>
</radialGradient>
<linearGradient id="paint4_linear_36_391" x1="46.0965" y1="35.604" x2="46.0965" y2="34.7089" gradientUnits="userSpaceOnUse">
<stop stop-color="#FFDE41"/>
<stop offset="1" stop-color="#FFD200" stop-opacity="0"/>
</linearGradient>
<linearGradient id="paint5_linear_36_391" x1="45.4474" y1="35.645" x2="45.4474" y2="34.4086" gradientUnits="userSpaceOnUse">
<stop stop-color="#FFDE41"/>
<stop offset="1" stop-color="#FFD200" stop-opacity="0"/>
</linearGradient>
</defs>
</svg>
