<svg width="18" height="17" viewBox="0 0 18 17" fill="none" xmlns="http://www.w3.org/2000/svg">
<path d="M15.677 16.607L9.96201 10.891C7.41968 12.6984 3.91645 12.2563 1.90288 9.87392C-0.110681 7.4915 0.0371699 3.96358 2.24301 1.75799C4.44827 -0.448564 7.97654 -0.597054 10.3594 1.4164C12.7423 3.42986 13.1846 6.93344 11.377 9.47599L17.092 15.192L15.678 16.606L15.677 16.607ZM6.48501 1.99997C4.58871 1.99955 2.9527 3.33066 2.56749 5.18742C2.18227 7.04418 3.15372 8.91626 4.89369 9.67023C6.63365 10.4242 8.66391 9.85282 9.75525 8.30204C10.8466 6.75126 10.6991 4.64731 9.40201 3.26399L10.007 3.86399L9.32501 3.18399L9.31301 3.17199C8.5648 2.41917 7.54641 1.99712 6.48501 1.99997Z" fill="#2E3A59"/>
</svg>
