<svg width="24" height="24" viewBox="0 0 24 24" fill="none" xmlns="http://www.w3.org/2000/svg">
<g clip-path="url(#clip0_15_768)">
<path d="M10.5 17H4V15H10.5C11.1387 15.0002 11.7653 15.1752 12.3116 15.5061C12.858 15.8369 13.3035 16.311 13.5997 16.8769C13.8959 17.4428 14.0316 18.079 13.992 18.7165C13.9525 19.3541 13.7393 19.9686 13.3755 20.4936C13.0116 21.0186 12.5111 21.434 11.928 21.6949C11.3449 21.9557 10.7016 22.052 10.0677 21.9734C9.43383 21.8947 8.83356 21.6441 8.33194 21.2486C7.83032 20.8532 7.44647 20.328 7.222 19.73L9.095 19.027C9.19118 19.2833 9.35566 19.5084 9.57063 19.6779C9.78559 19.8474 10.0428 19.9548 10.3145 19.9886C10.5862 20.0223 10.8619 19.9811 11.1118 19.8693C11.3617 19.7575 11.5762 19.5795 11.7322 19.3545C11.8881 19.1295 11.9795 18.8661 11.9965 18.5929C12.0135 18.3197 11.9553 18.047 11.8284 17.8045C11.7015 17.5619 11.5106 17.3588 11.2764 17.2169C11.0423 17.0751 10.7738 17.0001 10.5 17ZM5 11H18.5C19.1387 11.0002 19.7653 11.1752 20.3116 11.5061C20.858 11.8369 21.3035 12.311 21.5997 12.8769C21.8959 13.4428 22.0316 14.079 21.992 14.7165C21.9525 15.3541 21.7393 15.9686 21.3755 16.4936C21.0116 17.0186 20.5111 17.434 19.928 17.6949C19.3449 17.9557 18.7016 18.052 18.0677 17.9734C17.4338 17.8947 16.8336 17.6441 16.3319 17.2486C15.8303 16.8532 15.4465 16.328 15.222 15.73L17.095 15.027C17.1912 15.2833 17.3557 15.5084 17.5706 15.6779C17.7856 15.8474 18.0428 15.9548 18.3145 15.9886C18.5862 16.0223 18.8619 15.981 19.1118 15.8693C19.3617 15.7575 19.5762 15.5795 19.7322 15.3545C19.8881 15.1295 19.9795 14.8661 19.9965 14.5929C20.0135 14.3197 19.9553 14.047 19.8284 13.8045C19.7015 13.5619 19.5106 13.3588 19.2764 13.2169C19.0423 13.0751 18.7738 13.0001 18.5 13H5C4.20435 13 3.44129 12.6839 2.87868 12.1213C2.31607 11.5587 2 10.7956 2 10C2 9.20435 2.31607 8.44128 2.87868 7.87867C3.44129 7.31607 4.20435 7 5 7H13.5C13.7738 6.99988 14.0423 6.92485 14.2764 6.78304C14.5106 6.64123 14.7015 6.43805 14.8284 6.1955C14.9553 5.95296 15.0135 5.6803 14.9965 5.40708C14.9795 5.13385 14.8881 4.87047 14.7322 4.64549C14.5762 4.4205 14.3617 4.24247 14.1118 4.13071C13.8619 4.01894 13.5862 3.97769 13.3145 4.01143C13.0428 4.04517 12.7856 4.15261 12.5706 4.3221C12.3557 4.4916 12.1912 4.7167 12.095 4.973L10.222 4.271C10.5105 3.5038 11.059 2.86214 11.7719 2.45781C12.4849 2.05347 13.3171 1.91211 14.1236 2.05834C14.9301 2.20458 15.6597 2.62914 16.1853 3.25805C16.711 3.88696 16.9993 4.68036 17 5.5C17 6.42825 16.6313 7.31849 15.9749 7.97487C15.3185 8.63125 14.4283 9 13.5 9H5C4.73478 9 4.48043 9.10535 4.29289 9.29289C4.10536 9.48042 4 9.73478 4 10C4 10.2652 4.10536 10.5196 4.29289 10.7071C4.48043 10.8946 4.73478 11 5 11Z" fill="#3C6EEF"/>
</g>
<defs>
<clipPath id="clip0_15_768">
<rect width="24" height="24" fill="white"/>
</clipPath>
</defs>
</svg>
